<?xml version="1.0" ?><svg id="Icons" style="enable-background:new 0 0 32 32;" version="1.1" viewBox="0 0 32 32" xml:space="preserve" xmlns="http://www.w3.org/2000/svg" xmlns:xlink="http://www.w3.org/1999/xlink"><style type="text/css">
	.st0{fill:none;stroke:#000000;stroke-width:2;stroke-linecap:round;stroke-linejoin:round;stroke-miterlimit:10;}
</style><path class="st0" d="M26,6c-0.9-0.9-2.3-1.2-3.4-0.9c-0.7,0.2-1.4,0.1-2-0.1C16.4,3.5,11.5,4.5,8,8s-4.5,8.4-3,12.5  c0.2,0.6,0.3,1.4,0.1,2C4.8,23.7,5.1,25.1,6,26c0.9,0.9,2.3,1.2,3.4,0.9c0.7-0.2,1.4-0.1,2,0.1c4.1,1.5,9.1,0.5,12.5-3  s4.5-8.4,3-12.5c-0.2-0.6-0.3-1.4-0.1-2C27.2,8.3,26.9,6.9,26,6z"/></svg>